<svg width="100" height="100" viewBox="0 0 100 100" fill="none" xmlns="http://www.w3.org/2000/svg">
<g clip-path="url(#clip0_672_2)">
<mask id="mask0_672_2" style="mask-type:luminance" maskUnits="userSpaceOnUse" x="3" y="27" width="94" height="47">
<path d="M3 27H96.0508V73.1333H3V27Z" fill="white"/>
</mask>
<g mask="url(#mask0_672_2)">
<path d="M46.7314 27.2683C46.4429 27.3933 46.1994 27.5704 45.9999 27.7996C45.8004 28.0287 45.6652 28.2871 45.5953 28.5746L39.8281 52.4131L34.3336 44.911C34.2277 44.7673 34.1037 44.6402 33.9617 44.5277C33.8186 44.4152 33.6619 44.3235 33.4928 44.2506C33.3227 44.1777 33.1446 44.1277 32.9597 44.0996C32.7749 44.0725 32.5901 44.0673 32.4041 44.0871C32.217 44.1058 32.0378 44.1475 31.8642 44.211C31.6895 44.2756 31.5284 44.36 31.3796 44.4652C31.2308 44.5704 31.1001 44.6923 30.9874 44.8298C30.8735 44.9683 30.7834 45.1173 30.7146 45.2787L26.4633 55.2266H5.05915C4.92391 55.2266 4.78978 55.2391 4.65679 55.2631C4.52492 55.2871 4.39531 55.3235 4.27133 55.3714C4.14623 55.4193 4.02789 55.4777 3.91518 55.5475C3.80247 55.6162 3.69878 55.6954 3.60298 55.7839C3.50718 55.8725 3.42265 55.9683 3.34714 56.0714C3.27162 56.1756 3.20851 56.285 3.15666 56.4006C3.10482 56.5162 3.0665 56.635 3.03945 56.7579C3.01353 56.8798 3 57.0037 3 57.1287C3 57.2537 3.01353 57.3777 3.03945 57.4996C3.0665 57.6225 3.10482 57.7412 3.15666 57.8568C3.20851 57.9725 3.27162 58.0818 3.34714 58.186C3.42265 58.2891 3.50718 58.386 3.60298 58.4735C3.69878 58.5621 3.80247 58.6412 3.91518 58.711C4.02789 58.7798 4.14623 58.8381 4.27133 58.886C4.39531 58.9339 4.52492 58.9704 4.65679 58.9943C4.78978 59.0193 4.92391 59.0308 5.05915 59.0308H27.8631C28.0694 59.0308 28.2711 59.0027 28.4684 58.9475C28.6656 58.8912 28.8504 58.8089 29.0206 58.7016C29.1919 58.5943 29.3407 58.4662 29.4703 58.3173C29.5988 58.1683 29.7014 58.0058 29.778 57.8277L33.1108 50.0287L39.0932 58.1964C39.2059 58.3496 39.3401 58.485 39.4956 58.6027C39.6511 58.7204 39.8213 58.8141 40.0073 58.886C40.1933 58.9568 40.386 59.0016 40.5855 59.0214C40.785 59.0402 40.9833 59.0329 41.1817 58.9975C41.3789 58.9631 41.566 58.9027 41.7452 58.8173C41.9233 58.7318 42.0845 58.6246 42.2287 58.4954C42.373 58.3662 42.4947 58.2214 42.5928 58.0589C42.6908 57.8975 42.7619 57.7256 42.8058 57.5443L47.4223 38.461L54.09 71.4923C54.1317 71.6975 54.2084 71.8912 54.3188 72.0735C54.4293 72.2558 54.5679 72.4162 54.7358 72.5558C54.9038 72.6954 55.092 72.8069 55.2994 72.8891C55.5067 72.9725 55.7231 73.0225 55.9474 73.0391C56.1728 73.0558 56.3949 73.0391 56.6147 72.9881C56.8333 72.9371 57.0384 72.8548 57.2278 72.7423C57.4183 72.6287 57.5839 72.4912 57.7237 72.3277C57.8646 72.1641 57.9739 71.9839 58.0505 71.7881L65.709 52.1246L69.293 58.0558C69.3821 58.2037 69.4914 58.3381 69.6188 58.4589C69.7473 58.5808 69.8904 58.6839 70.0482 58.7693C70.206 58.8548 70.3739 58.9204 70.5497 58.9641C70.7267 59.0089 70.907 59.0308 71.0896 59.0308H93.8947C94.0299 59.0308 94.1641 59.0193 94.2971 58.9943C94.4289 58.9704 94.5585 58.9339 94.6825 58.886C94.8076 58.8381 94.926 58.7798 95.0387 58.711C95.1514 58.6412 95.2551 58.5621 95.3509 58.4735C95.4467 58.386 95.5312 58.2891 95.6067 58.186C95.6822 58.0818 95.7453 57.9725 95.7972 57.8568C95.849 57.7412 95.8874 57.6225 95.9144 57.4996C95.9403 57.3777 95.9539 57.2537 95.9539 57.1287C95.9539 57.0037 95.9403 56.8798 95.9144 56.7579C95.8874 56.635 95.849 56.5162 95.7972 56.4006C95.7453 56.285 95.6822 56.1756 95.6067 56.0714C95.5312 55.9683 95.4467 55.8725 95.3509 55.7839C95.2551 55.6954 95.1514 55.6162 95.0387 55.5475C94.926 55.4777 94.8076 55.4193 94.6825 55.3714C94.5585 55.3235 94.4289 55.2871 94.2971 55.2631C94.1641 55.2391 94.0299 55.2266 93.8947 55.2266H72.2978L67.1009 46.6225C67.0051 46.4631 66.8868 46.3204 66.7447 46.1923C66.6039 46.0641 66.4461 45.9579 66.2725 45.8714C66.0978 45.786 65.9141 45.7246 65.7214 45.6881C65.5275 45.6506 65.3325 45.6391 65.1353 45.6548C64.9392 45.6693 64.7487 45.71 64.5639 45.7756C64.3802 45.8412 64.2088 45.9287 64.0522 46.0402C63.8955 46.1506 63.7591 46.2798 63.6419 46.4277C63.5258 46.5746 63.4345 46.7339 63.3669 46.9058L56.7465 63.9048L49.628 28.6402C49.5986 28.4975 49.5536 28.36 49.4905 28.2266C49.4273 28.0943 49.3484 27.9693 49.2549 27.8527C49.1602 27.7371 49.0531 27.6318 48.9337 27.5381C48.8131 27.4443 48.6835 27.3641 48.5437 27.2975C48.404 27.2318 48.2574 27.1808 48.1053 27.1454C47.9531 27.11 47.7987 27.0912 47.6409 27.0881C47.4843 27.086 47.3287 27.0996 47.1755 27.1298C47.021 27.161 46.8734 27.2068 46.7314 27.2683Z" fill="white"/>
</g>
<path d="M5.48727 82.08C5.78727 81.7867 5.93727 81.4133 5.93727 80.96C5.93727 80.5067 5.78727 80.14 5.48727 79.86C5.18727 79.58 4.7606 79.44 4.20727 79.44H3.60727C3.3406 79.44 3.20727 79.5733 3.20727 79.84V82.38C3.20727 82.4667 3.24393 82.51 3.31727 82.51H4.20727C4.7606 82.51 5.18727 82.3667 5.48727 82.08ZM4.41727 79C5.18393 79 5.7806 79.1767 6.20727 79.53C6.6406 79.8833 6.85727 80.3533 6.85727 80.94C6.85727 81.52 6.64727 82.0033 6.22727 82.39C5.80727 82.7767 5.24393 82.97 4.53727 82.97H3.35727C3.25727 82.97 3.20727 83.01 3.20727 83.09V85.34C3.20727 85.46 3.2506 85.5567 3.33727 85.63C3.42393 85.7033 3.5306 85.7433 3.65727 85.75L4.07727 85.77C4.1506 85.77 4.18727 85.8167 4.18727 85.91C4.18727 85.9967 4.1406 86.04 4.04727 86.04L2.79727 86L1.68727 86.04C1.58727 86.04 1.53727 86 1.53727 85.92C1.53727 85.8267 1.57727 85.7767 1.65727 85.77L1.94727 85.75C2.2206 85.73 2.35727 85.5933 2.35727 85.34V79.66C2.35727 79.42 2.20393 79.2867 1.89727 79.26L1.60727 79.23C1.53393 79.2167 1.49727 79.1733 1.49727 79.1C1.49727 79.0067 1.54393 78.96 1.63727 78.96L3.01727 79H4.41727ZM14.7643 85.77C14.8376 85.77 14.8743 85.8167 14.8743 85.91C14.8743 85.9967 14.8276 86.04 14.7343 86.04L13.6143 86L12.6343 86.04C12.5343 86.04 12.4843 85.9933 12.4843 85.9C12.4843 85.8267 12.521 85.7833 12.5943 85.77L12.7743 85.75C13.041 85.7167 13.1743 85.58 13.1743 85.34V82.86C13.1743 82.7333 13.1143 82.67 12.9943 82.67H9.3343C9.28763 82.67 9.24763 82.69 9.2143 82.73C9.18096 82.7633 9.1643 82.8067 9.1643 82.86V85.34C9.1643 85.58 9.29763 85.7167 9.5643 85.75L9.7343 85.77C9.82096 85.7833 9.8643 85.8267 9.8643 85.9C9.8643 85.94 9.84763 85.9733 9.8143 86C9.78763 86.0267 9.7543 86.04 9.7143 86.04L8.7243 86L7.5943 86.04C7.50096 86.04 7.4543 85.9967 7.4543 85.91C7.4543 85.8167 7.49096 85.77 7.5643 85.77L7.8543 85.75C7.98763 85.7367 8.09763 85.6967 8.1843 85.63C8.27096 85.5567 8.3143 85.46 8.3143 85.34V79.66C8.3143 79.42 8.16096 79.2867 7.8543 79.26L7.5643 79.23C7.49096 79.23 7.4543 79.1867 7.4543 79.1C7.4543 79.0067 7.50096 78.96 7.5943 78.96L8.7243 79L9.7143 78.96C9.8143 78.96 9.8643 79 9.8643 79.08C9.8643 79.1733 9.82096 79.2233 9.7343 79.23L9.5643 79.26C9.29763 79.3067 9.1643 79.44 9.1643 79.66V82.01C9.1643 82.1433 9.23096 82.21 9.3643 82.21H12.9843C13.111 82.21 13.1743 82.1533 13.1743 82.04V79.66C13.1743 79.44 13.041 79.3067 12.7743 79.26L12.5943 79.23C12.521 79.2167 12.4843 79.1733 12.4843 79.1C12.4843 79.0067 12.5343 78.96 12.6343 78.96L13.6143 79L14.7343 78.96C14.8276 78.96 14.8743 79.0067 14.8743 79.1C14.8743 79.1867 14.8376 79.23 14.7643 79.23L14.4643 79.26C14.171 79.2867 14.0243 79.42 14.0243 79.66V85.34C14.0243 85.5867 14.171 85.7233 14.4643 85.75L14.7643 85.77ZM22.1519 78.97C22.2452 78.97 22.2919 79.01 22.2919 79.09C22.2919 79.17 22.2552 79.2167 22.1819 79.23L21.8919 79.26C21.6719 79.28 21.4819 79.4133 21.3219 79.66L19.3719 82.78C19.2919 82.92 19.2452 83.0767 19.2319 83.25V85.34C19.2319 85.46 19.2752 85.5567 19.3619 85.63C19.4485 85.6967 19.5552 85.7367 19.6819 85.75L19.9719 85.77C20.0519 85.77 20.0919 85.8133 20.0919 85.9C20.0919 85.94 20.0752 85.9733 20.0419 86C20.0152 86.0267 19.9852 86.04 19.9519 86.04L18.8219 86L17.8219 86.04C17.7285 86.04 17.6819 86 17.6819 85.92C17.6819 85.8333 17.7185 85.7833 17.7919 85.77L17.9619 85.75C18.2352 85.7167 18.3719 85.58 18.3719 85.34V83.39C18.3719 83.2633 18.3419 83.1467 18.2819 83.04L16.1019 79.66C15.9419 79.4133 15.7485 79.28 15.5219 79.26L15.2319 79.23C15.1585 79.2167 15.1219 79.17 15.1219 79.09C15.1219 79.01 15.1685 78.97 15.2619 78.97L16.4519 79L17.5119 78.98C17.6119 78.98 17.6619 79.0233 17.6619 79.11C17.6619 79.1967 17.6219 79.2433 17.5419 79.25L17.3519 79.27C17.2319 79.2833 17.1519 79.3333 17.1119 79.42C17.0785 79.5067 17.0885 79.5867 17.1419 79.66L18.8819 82.52C18.9085 82.5667 18.9385 82.59 18.9719 82.59C19.0052 82.59 19.0352 82.5733 19.0619 82.54L20.7719 79.66C20.8252 79.5867 20.8319 79.51 20.7919 79.43C20.7585 79.3433 20.6819 79.29 20.5619 79.27L20.3719 79.25C20.2785 79.2367 20.2385 79.19 20.2519 79.11C20.2652 79.0233 20.3152 78.98 20.4019 78.98L21.1819 79L22.1519 78.97ZM27.1495 84.19C27.1495 84.8167 26.9128 85.2933 26.4395 85.62C25.9728 85.9467 25.4028 86.11 24.7295 86.11C24.0628 86.11 23.5128 86.03 23.0795 85.87C22.6528 85.71 22.4395 85.5333 22.4395 85.34V84.17C22.4395 84.03 22.4928 83.96 22.5995 83.96C22.6861 83.96 22.7461 84.0233 22.7795 84.15C22.9528 84.6633 23.1761 85.0467 23.4495 85.3C23.7295 85.5467 24.1195 85.67 24.6195 85.67C25.1195 85.67 25.5228 85.5567 25.8295 85.33C26.1428 85.1033 26.2995 84.79 26.2995 84.39C26.2995 83.95 26.0528 83.58 25.5595 83.28C25.3395 83.1467 25.0961 83.0167 24.8295 82.89C24.5628 82.7633 24.2961 82.6333 24.0295 82.5C23.7628 82.36 23.5195 82.21 23.2995 82.05C22.8061 81.69 22.5595 81.2367 22.5595 80.69C22.5595 80.1367 22.7695 79.7 23.1895 79.38C23.6161 79.0533 24.1161 78.89 24.6895 78.89C25.2628 78.89 25.7495 78.9633 26.1495 79.11C26.5495 79.25 26.7495 79.4067 26.7495 79.58V80.59C26.7495 80.7233 26.6995 80.79 26.5995 80.79C26.5061 80.79 26.4361 80.7233 26.3895 80.59C26.2495 80.1633 26.0661 79.8467 25.8395 79.64C25.6128 79.4333 25.2728 79.33 24.8195 79.33C24.3728 79.33 24.0195 79.4367 23.7595 79.65C23.4995 79.8633 23.3695 80.13 23.3695 80.45C23.3695 80.7633 23.4995 81.0367 23.7595 81.27C24.0195 81.4967 24.3328 81.7 24.6995 81.88C25.0728 82.0533 25.4428 82.2367 25.8095 82.43C26.1828 82.6167 26.4995 82.86 26.7595 83.16C27.0195 83.46 27.1495 83.8033 27.1495 84.19ZM28.2623 86.04C28.169 86.04 28.1223 86 28.1223 85.92C28.1223 85.8333 28.159 85.7833 28.2323 85.77L28.4023 85.75C28.6757 85.7167 28.8123 85.58 28.8123 85.34V79.66C28.8123 79.42 28.659 79.2867 28.3523 79.26L28.0623 79.23C27.989 79.2167 27.9523 79.1733 27.9523 79.1C27.9523 79.0067 27.999 78.96 28.0923 78.96L29.2223 79L30.2123 78.96C30.3123 78.96 30.3623 79 30.3623 79.08C30.3623 79.1733 30.319 79.2233 30.2323 79.23L30.0623 79.26C29.7957 79.3067 29.6623 79.44 29.6623 79.66V85.34C29.6623 85.46 29.7057 85.5567 29.7923 85.63C29.879 85.6967 29.9857 85.7367 30.1123 85.75L30.4023 85.77C30.4823 85.77 30.5223 85.8133 30.5223 85.9C30.5223 85.94 30.5057 85.9733 30.4723 86C30.4457 86.0267 30.4157 86.04 30.3823 86.04L29.2523 86L28.2623 86.04ZM35.9062 79.34L35.8562 79.08C35.8562 79.0067 35.8995 78.97 35.9862 78.97L36.5462 79L37.5262 78.96C37.6262 78.96 37.6762 79.0067 37.6762 79.1C37.6762 79.1867 37.6328 79.23 37.5462 79.23L37.2462 79.26C37.0195 79.28 36.7995 79.4133 36.5862 79.66L34.3862 82.14C34.2928 82.2467 34.1762 82.33 34.0362 82.39C34.1762 82.45 34.2928 82.5367 34.3862 82.65L36.8462 85.32C37.0928 85.58 37.3128 85.7167 37.5062 85.73L37.7962 85.75C37.8828 85.7633 37.9262 85.8133 37.9262 85.9C37.9262 85.98 37.8795 86.02 37.7862 86.02C36.9995 86.0067 36.5395 86 36.4062 86C36.2795 86 36.1495 85.9267 36.0162 85.78L33.6262 83.05C33.4595 82.85 33.3028 82.75 33.1562 82.75C33.1562 82.75 33.1528 82.75 33.1462 82.75H32.9062C32.8595 82.75 32.8362 82.7867 32.8362 82.86V85.34C32.8362 85.6 32.9262 85.74 33.1062 85.76L33.2062 85.77C33.2795 85.7833 33.3162 85.8267 33.3162 85.9C33.3162 85.9933 33.2695 86.04 33.1762 86.04L32.4262 86L31.4362 86.04C31.3362 86.04 31.2862 86 31.2862 85.92C31.2862 85.8333 31.3262 85.7833 31.4062 85.77L31.5762 85.75C31.8495 85.7167 31.9862 85.58 31.9862 85.34V79.66C31.9862 79.4333 31.8328 79.3 31.5262 79.26L31.2362 79.23C31.1628 79.2167 31.1262 79.1733 31.1262 79.1C31.1262 79.0067 31.1728 78.96 31.2662 78.96L32.3962 79L33.1762 78.96C33.2762 78.96 33.3262 79.0033 33.3262 79.09C33.3262 79.17 33.2828 79.2167 33.1962 79.23L33.1062 79.24C32.9262 79.2733 32.8362 79.4133 32.8362 79.66V82.17C32.8362 82.25 32.8662 82.29 32.9262 82.29H33.1862C33.3462 82.29 33.5095 82.19 33.6762 81.99L35.7762 79.6C35.8628 79.5067 35.9062 79.42 35.9062 79.34ZM38.8905 83.43V79.66C38.8905 79.42 38.7371 79.2867 38.4305 79.26L38.1405 79.23C38.0671 79.2167 38.0305 79.1733 38.0305 79.1C38.0305 79.0067 38.0771 78.96 38.1705 78.96L39.3005 79L40.2905 78.96C40.3905 78.96 40.4405 79 40.4405 79.08C40.4405 79.1733 40.3971 79.2233 40.3105 79.23L40.1405 79.26C39.8738 79.3067 39.7405 79.44 39.7405 79.66V83.44C39.7405 84.06 39.9271 84.5433 40.3005 84.89C40.6738 85.2367 41.1638 85.41 41.7705 85.41C42.3838 85.41 42.8771 85.2333 43.2505 84.88C43.6305 84.5267 43.8205 84.0467 43.8205 83.44V79.66C43.8205 79.44 43.6871 79.3067 43.4205 79.26L43.2505 79.23C43.1638 79.2167 43.1205 79.17 43.1205 79.09C43.1205 79.01 43.1705 78.97 43.2705 78.97L44.0505 79L45.0205 78.97C45.1138 78.97 45.1605 79.01 45.1605 79.09C45.1605 79.17 45.1238 79.2167 45.0505 79.23L44.7605 79.26C44.4538 79.2933 44.3005 79.4267 44.3005 79.66V83.43C44.3005 84.25 44.0471 84.9033 43.5405 85.39C43.0405 85.87 42.3971 86.11 41.6105 86.11C40.8238 86.11 40.1738 85.86 39.6605 85.36C39.1471 84.86 38.8905 84.2167 38.8905 83.43ZM47.4748 79.66V85.08C47.4748 85.22 47.5182 85.3333 47.6048 85.42C47.6982 85.5 47.8182 85.54 47.9648 85.54H49.4148C49.7682 85.54 50.0715 85.4567 50.3248 85.29C50.5782 85.1167 50.7515 84.8667 50.8448 84.54C50.8782 84.4333 50.9482 84.38 51.0548 84.38C51.1615 84.38 51.2082 84.44 51.1948 84.56L51.0348 85.6C51.0215 85.7133 50.9748 85.81 50.8948 85.89C50.8148 85.9633 50.7115 86 50.5848 86H47.0348L45.9048 86.04C45.8115 86.04 45.7648 85.9967 45.7648 85.91C45.7648 85.8167 45.8015 85.77 45.8748 85.77L46.1648 85.75C46.2982 85.7367 46.4082 85.6967 46.4948 85.63C46.5815 85.5567 46.6248 85.46 46.6248 85.34V79.66C46.6248 79.42 46.4715 79.2867 46.1648 79.26L45.8748 79.23C45.8015 79.2167 45.7648 79.1733 45.7648 79.1C45.7648 79.0067 45.8115 78.96 45.9048 78.96L47.0348 79L48.0248 78.96C48.1248 78.96 48.1748 79 48.1748 79.08C48.1748 79.1733 48.1315 79.2233 48.0448 79.23L47.8748 79.26C47.6082 79.3067 47.4748 79.44 47.4748 79.66ZM63.6217 85.77C63.6951 85.77 63.7317 85.8167 63.7317 85.91C63.7317 85.9967 63.6851 86.04 63.5917 86.04L62.4717 86L61.4917 86.04C61.3917 86.04 61.3417 85.9933 61.3417 85.9C61.3417 85.8267 61.3784 85.7833 61.4517 85.77L61.6317 85.75C61.8984 85.7167 62.0317 85.58 62.0317 85.34V82.86C62.0317 82.7333 61.9717 82.67 61.8517 82.67H58.1917C58.1451 82.67 58.1051 82.69 58.0717 82.73C58.0384 82.7633 58.0217 82.8067 58.0217 82.86V85.34C58.0217 85.58 58.1551 85.7167 58.4217 85.75L58.5917 85.77C58.6784 85.7833 58.7217 85.8267 58.7217 85.9C58.7217 85.94 58.7051 85.9733 58.6717 86C58.6451 86.0267 58.6117 86.04 58.5717 86.04L57.5817 86L56.4517 86.04C56.3584 86.04 56.3117 85.9967 56.3117 85.91C56.3117 85.8167 56.3484 85.77 56.4217 85.77L56.7117 85.75C56.8451 85.7367 56.9551 85.6967 57.0417 85.63C57.1284 85.5567 57.1717 85.46 57.1717 85.34V79.66C57.1717 79.42 57.0184 79.2867 56.7117 79.26L56.4217 79.23C56.3484 79.23 56.3117 79.1867 56.3117 79.1C56.3117 79.0067 56.3584 78.96 56.4517 78.96L57.5817 79L58.5717 78.96C58.6717 78.96 58.7217 79 58.7217 79.08C58.7217 79.1733 58.6784 79.2233 58.5917 79.23L58.4217 79.26C58.1551 79.3067 58.0217 79.44 58.0217 79.66V82.01C58.0217 82.1433 58.0884 82.21 58.2217 82.21H61.8417C61.9684 82.21 62.0317 82.1533 62.0317 82.04V79.66C62.0317 79.44 61.8984 79.3067 61.6317 79.26L61.4517 79.23C61.3784 79.2167 61.3417 79.1733 61.3417 79.1C61.3417 79.0067 61.3917 78.96 61.4917 78.96L62.4717 79L63.5917 78.96C63.6851 78.96 63.7317 79.0067 63.7317 79.1C63.7317 79.1867 63.6951 79.23 63.6217 79.23L63.3217 79.26C63.0284 79.2867 62.8817 79.42 62.8817 79.66V85.34C62.8817 85.5867 63.0284 85.7233 63.3217 85.75L63.6217 85.77ZM69.3493 86H65.5993L64.4693 86.04C64.376 86.04 64.3293 85.9967 64.3293 85.91C64.3293 85.8167 64.366 85.77 64.4393 85.77L64.7293 85.75C64.8626 85.7367 64.9726 85.6967 65.0593 85.63C65.146 85.5567 65.1893 85.46 65.1893 85.34V79.66C65.1893 79.42 65.036 79.2867 64.7293 79.26L64.4393 79.23C64.366 79.23 64.3293 79.1867 64.3293 79.1C64.3293 79.0067 64.376 78.96 64.4693 78.96L65.5993 79H69.1493C69.276 79 69.3793 79.04 69.4593 79.12C69.5393 79.1933 69.586 79.2867 69.5993 79.4L69.7393 80.32C69.7526 80.44 69.7026 80.5 69.5893 80.5C69.4826 80.5 69.4126 80.4467 69.3793 80.34C69.2793 80.02 69.1293 79.7933 68.9293 79.66C68.7293 79.5267 68.4526 79.46 68.0993 79.46H66.5293C66.3826 79.46 66.2626 79.5033 66.1693 79.59C66.0826 79.67 66.0393 79.7833 66.0393 79.93V82.03C66.0393 82.1167 66.0826 82.16 66.1693 82.16H68.0293C68.1226 82.16 68.196 82.1367 68.2493 82.09C68.3026 82.0433 68.336 82 68.3493 81.96C68.3693 81.92 68.396 81.8467 68.4293 81.74L68.4693 81.61C68.4893 81.53 68.5393 81.49 68.6193 81.49C68.6993 81.49 68.7393 81.5367 68.7393 81.63L68.6993 82.48L68.7393 83.29C68.7393 83.3767 68.696 83.4267 68.6093 83.44C68.5293 83.44 68.4826 83.4 68.4693 83.32L68.4393 83.14C68.3793 82.7933 68.2426 82.62 68.0293 82.62H66.1593C66.0793 82.62 66.0393 82.6667 66.0393 82.76V85.08C66.0393 85.22 66.0826 85.3333 66.1693 85.42C66.2626 85.5 66.3826 85.54 66.5293 85.54H68.1793C68.526 85.54 68.8226 85.4567 69.0693 85.29C69.3226 85.1167 69.4993 84.8667 69.5993 84.54C69.6326 84.4333 69.686 84.38 69.7593 84.38C69.8393 84.38 69.8926 84.4 69.9193 84.44C69.9526 84.4733 69.966 84.5133 69.9593 84.56L69.7993 85.6C69.786 85.7133 69.736 85.81 69.6493 85.89C69.5693 85.9633 69.4693 86 69.3493 86ZM72.6372 83.25H74.8672C74.9405 83.25 74.9639 83.21 74.9372 83.13L73.7472 80.07L72.5572 83.15C72.5372 83.2167 72.5639 83.25 72.6372 83.25ZM71.7072 85.34C71.6939 85.38 71.6872 85.4267 71.6872 85.48C71.6872 85.5267 71.7139 85.5833 71.7672 85.65C71.8205 85.71 71.8939 85.7433 71.9872 85.75L72.2072 85.77C72.2939 85.7833 72.3372 85.8267 72.3372 85.9C72.3372 85.9933 72.2872 86.04 72.1872 86.04L71.3172 86L70.4072 86.04C70.3139 86.04 70.2672 85.9967 70.2672 85.91C70.2672 85.8167 70.3039 85.77 70.3772 85.77L70.5672 85.75C70.8539 85.7167 71.0472 85.58 71.1472 85.34L73.7172 79.01C73.7439 78.93 73.8205 78.89 73.9472 78.89C74.0805 78.89 74.1639 78.93 74.1972 79.01L76.7572 85.34C76.8439 85.5867 77.0339 85.7233 77.3272 85.75L77.5372 85.77C77.5639 85.77 77.5872 85.7833 77.6072 85.81C77.6272 85.8367 77.6372 85.8633 77.6372 85.89C77.6372 85.99 77.5905 86.04 77.4972 86.04L76.3472 86L75.3172 86.04C75.2239 86.04 75.1772 86 75.1772 85.92C75.1772 85.8267 75.2172 85.7767 75.2972 85.77L75.5272 85.75C75.6139 85.7433 75.6839 85.71 75.7372 85.65C75.7972 85.59 75.8272 85.5333 75.8272 85.48C75.8272 85.4267 75.8172 85.38 75.7972 85.34L75.2072 83.81C75.1872 83.7433 75.1339 83.71 75.0472 83.71H72.4572C72.3772 83.71 72.3239 83.7433 72.2972 83.81L71.7072 85.34ZM79.5452 79.66V85.08C79.5452 85.22 79.5885 85.3333 79.6752 85.42C79.7685 85.5 79.8885 85.54 80.0352 85.54H81.4852C81.8385 85.54 82.1418 85.4567 82.3952 85.29C82.6485 85.1167 82.8218 84.8667 82.9152 84.54C82.9485 84.4333 83.0185 84.38 83.1252 84.38C83.2318 84.38 83.2785 84.44 83.2652 84.56L83.1052 85.6C83.0918 85.7133 83.0452 85.81 82.9652 85.89C82.8852 85.9633 82.7818 86 82.6552 86H79.1052L77.9752 86.04C77.8818 86.04 77.8352 85.9967 77.8352 85.91C77.8352 85.8167 77.8718 85.77 77.9452 85.77L78.2352 85.75C78.3685 85.7367 78.4785 85.6967 78.5652 85.63C78.6518 85.5567 78.6952 85.46 78.6952 85.34V79.66C78.6952 79.42 78.5418 79.2867 78.2352 79.26L77.9452 79.23C77.8718 79.2167 77.8352 79.1733 77.8352 79.1C77.8352 79.0067 77.8818 78.96 77.9752 78.96L79.1052 79L80.0952 78.96C80.1952 78.96 80.2452 79 80.2452 79.08C80.2452 79.1733 80.2018 79.2233 80.1152 79.23L79.9452 79.26C79.6785 79.3067 79.5452 79.44 79.5452 79.66ZM86.1042 79.73V85.34C86.1042 85.46 86.1476 85.5567 86.2342 85.63C86.3209 85.6967 86.4276 85.7367 86.5542 85.75L86.8442 85.77C86.9242 85.77 86.9642 85.8133 86.9642 85.9C86.9642 85.94 86.9476 85.9733 86.9142 86C86.8876 86.0267 86.8576 86.04 86.8242 86.04L85.6942 86L84.4542 86.04C84.4209 86.04 84.3876 86.0267 84.3542 86C84.3276 85.9733 84.3142 85.94 84.3142 85.9C84.3142 85.8133 84.3542 85.77 84.4342 85.77L84.8042 85.75C84.9309 85.7367 85.0376 85.6967 85.1242 85.63C85.2109 85.5567 85.2542 85.46 85.2542 85.34V79.73C85.2542 79.55 85.1709 79.46 85.0042 79.46H84.1642C83.8376 79.46 83.5809 79.55 83.3942 79.73C83.2076 79.9033 83.0609 80.1633 82.9542 80.51C82.9142 80.61 82.8576 80.66 82.7842 80.66C82.7176 80.66 82.6676 80.6433 82.6342 80.61C82.6009 80.57 82.5876 80.5267 82.5942 80.48L82.6742 79.19C82.6876 79.0633 82.7609 79 82.8942 79H88.4342C88.5742 79 88.6509 79.08 88.6642 79.24L88.7642 80.48C88.7709 80.5333 88.7576 80.5767 88.7242 80.61C88.6909 80.6433 88.6376 80.66 88.5642 80.66C88.4976 80.66 88.4442 80.61 88.4042 80.51C88.2842 80.1567 88.1309 79.8933 87.9442 79.72C87.7642 79.5467 87.5142 79.46 87.1942 79.46H86.3542C86.1876 79.46 86.1042 79.55 86.1042 79.73ZM96.3952 85.77C96.4685 85.77 96.5052 85.8167 96.5052 85.91C96.5052 85.9967 96.4585 86.04 96.3652 86.04L95.2452 86L94.2652 86.04C94.1652 86.04 94.1152 85.9933 94.1152 85.9C94.1152 85.8267 94.1518 85.7833 94.2252 85.77L94.4052 85.75C94.6718 85.7167 94.8052 85.58 94.8052 85.34V82.86C94.8052 82.7333 94.7452 82.67 94.6252 82.67H90.9652C90.9185 82.67 90.8785 82.69 90.8452 82.73C90.8118 82.7633 90.7952 82.8067 90.7952 82.86V85.34C90.7952 85.58 90.9285 85.7167 91.1952 85.75L91.3652 85.77C91.4518 85.7833 91.4952 85.8267 91.4952 85.9C91.4952 85.94 91.4785 85.9733 91.4452 86C91.4185 86.0267 91.3852 86.04 91.3452 86.04L90.3552 86L89.2252 86.04C89.1318 86.04 89.0852 85.9967 89.0852 85.91C89.0852 85.8167 89.1218 85.77 89.1952 85.77L89.4852 85.75C89.6185 85.7367 89.7285 85.6967 89.8152 85.63C89.9018 85.5567 89.9452 85.46 89.9452 85.34V79.66C89.9452 79.42 89.7918 79.2867 89.4852 79.26L89.1952 79.23C89.1218 79.23 89.0852 79.1867 89.0852 79.1C89.0852 79.0067 89.1318 78.96 89.2252 78.96L90.3552 79L91.3452 78.96C91.4452 78.96 91.4952 79 91.4952 79.08C91.4952 79.1733 91.4518 79.2233 91.3652 79.23L91.1952 79.26C90.9285 79.3067 90.7952 79.44 90.7952 79.66V82.01C90.7952 82.1433 90.8618 82.21 90.9952 82.21H94.6152C94.7418 82.21 94.8052 82.1533 94.8052 82.04V79.66C94.8052 79.44 94.6718 79.3067 94.4052 79.26L94.2252 79.23C94.1518 79.2167 94.1152 79.1733 94.1152 79.1C94.1152 79.0067 94.1652 78.96 94.2652 78.96L95.2452 79L96.3652 78.96C96.4585 78.96 96.5052 79.0067 96.5052 79.1C96.5052 79.1867 96.4685 79.23 96.3952 79.23L96.0952 79.26C95.8018 79.2867 95.6552 79.42 95.6552 79.66V85.34C95.6552 85.5867 95.8018 85.7233 96.0952 85.75L96.3952 85.77Z" fill="white"/>
</g>
<defs>
<clipPath id="clip0_672_2">
<rect width="100" height="100" fill="white"/>
</clipPath>
</defs>
</svg>
